<svg xmlns="http://www.w3.org/2000/svg" viewBox="0 0 64 64" role="img" aria-label="MediaWorld: radio y televisión mundial">
  <defs>
    <linearGradient id="world" x1="10" y1="8" x2="54" y2="57" gradientUnits="userSpaceOnUse">
      <stop stop-color="#25d7c8"/>
      <stop offset="1" stop-color="#58aaff"/>
    </linearGradient>
  </defs>
  <rect x="2" y="2" width="60" height="60" rx="17" fill="#07131f"/>
  <circle cx="32" cy="33" r="23" fill="none" stroke="url(#world)" stroke-width="3"/>
  <path d="M9.5 33h45M32 10c-7 6.4-10.5 14.1-10.5 23S25 49.6 32 56M32 10c7 6.4 10.5 14.1 10.5 23S39 49.6 32 56" fill="none" stroke="url(#world)" stroke-width="2" stroke-linecap="round" opacity=".68"/>
  <rect x="16" y="22" width="32" height="23" rx="5" fill="#07131f" stroke="#f4fbff" stroke-width="3"/>
  <path d="m28 28.5 10 5.5-10 5.5z" fill="#ff668f"/>
  <path d="m26 18 6-6 6 6" fill="none" stroke="#f4fbff" stroke-width="3" stroke-linecap="round" stroke-linejoin="round"/>
  <circle cx="50" cy="16" r="3" fill="#25d7c8"/>
  <path d="M50 10a6 6 0 0 1 6 6M50 6a10 10 0 0 1 10 10" fill="none" stroke="#25d7c8" stroke-width="2.5" stroke-linecap="round"/>
</svg>
